<svg width="24" height="24" viewBox="0 0 24 24" fill="none" xmlns="http://www.w3.org/2000/svg">
<path d="M8.00017 16C8.55246 16 9.00017 15.5523 9.00017 15C9.00017 14.4477 8.55246 14 8.00017 14C7.44789 14 7.00017 14.4477 7.00017 15C7.00017 15.5523 7.44789 16 8.00017 16ZM16.9999 15C16.9999 15.5523 16.5522 16 15.9999 16C15.4477 16 14.9999 15.5523 14.9999 15C14.9999 14.4477 15.4477 14 15.9999 14C16.5522 14 16.9999 14.4477 16.9999 15ZM10.7502 5C10.336 5 10.0002 5.33579 10.0002 5.75C10.0002 6.16421 10.336 6.5 10.7502 6.5H13.2502C13.6644 6.5 14.0002 6.16421 14.0002 5.75C14.0002 5.33579 13.6644 5 13.2502 5H10.7502ZM7.75017 2C5.6791 2 4.00017 3.67893 4.00017 5.75V9.5H2.75C2.33578 9.5 2 9.83579 2 10.25C2 10.6642 2.33578 11 2.75 11H4.00017V19.75C4.00017 20.7165 4.78367 21.5 5.75017 21.5H7.25017C8.21667 21.5 9.00017 20.7165 9.00017 19.75V18.5H15.0002V19.75C15.0002 20.7165 15.7837 21.5 16.7502 21.5H18.2502C19.2167 21.5 20.0002 20.7165 20.0002 19.75V11H21.2275C21.6417 11 21.9775 10.6642 21.9775 10.25C21.9775 9.83579 21.6417 9.5 21.2275 9.5H20.0002V5.75C20.0002 3.67893 18.3213 2 16.2502 2H7.75017ZM18.5002 18.5V19.75C18.5002 19.8881 18.3883 20 18.2502 20H16.7502C16.6121 20 16.5002 19.8881 16.5002 19.75V18.5H18.5002ZM18.5002 17H5.50017V13H18.5002V17ZM5.50017 19.75V18.5H7.50017V19.75C7.50017 19.8881 7.38824 20 7.25017 20H5.75017C5.6121 20 5.50017 19.8881 5.50017 19.75ZM5.50017 5.75C5.50017 4.50736 6.50753 3.5 7.75017 3.5H16.2502C17.4928 3.5 18.5002 4.50736 18.5002 5.75V11.5H5.50017V5.75Z" fill="#224B66"/>
</svg>
